<svg width="32" height="32" viewBox="0 0 32 32" fill="none" xmlns="http://www.w3.org/2000/svg">
<g clip-path="url(#clip0)">
<path d="M24.5798 13.6498C23.5857 11.7879 22.0133 10.2996 20.0996 9.4093C18.1859 8.51897 16.0346 8.27484 13.9701 8.71373C11.9055 9.15261 10.0396 10.2507 8.65359 11.8425C7.26755 13.4343 6.43653 15.4336 6.28578 17.5388C4.56925 17.7241 2.98898 18.5602 1.86997 19.8749C0.750957 21.1897 0.178288 22.8833 0.269737 24.6074C0.361186 26.3315 1.1098 27.955 2.36162 29.144C3.61343 30.333 5.27328 30.9972 6.99978 30.9998H22.9998C25.1838 31.0024 27.2899 30.1878 28.9036 28.7161C30.5174 27.2443 31.5221 25.2221 31.7202 23.047C31.9182 20.872 31.2953 18.7015 29.974 16.9625C28.6526 15.2235 26.7284 14.0418 24.5798 13.6498ZM22.9998 29.4998H6.99978C5.6676 29.5057 4.38327 29.0036 3.40824 28.0958C2.43321 27.188 1.8408 25.9428 1.75159 24.6136C1.66238 23.2844 2.08309 21.9711 2.92806 20.9412C3.77304 19.9113 4.97877 19.2421 6.29978 19.0698C6.40551 20.3936 6.78123 21.6818 7.40378 22.8548C7.4504 22.9416 7.51366 23.0184 7.58995 23.0808C7.66624 23.1431 7.75406 23.1898 7.84841 23.2183C7.94275 23.2467 8.04177 23.2562 8.13981 23.2464C8.23784 23.2365 8.33298 23.2075 8.41978 23.1608C8.50659 23.1142 8.58336 23.051 8.64571 22.9747C8.70807 22.8984 8.75479 22.8106 8.7832 22.7162C8.81162 22.6219 8.82117 22.5229 8.81132 22.4248C8.80147 22.3268 8.7724 22.2316 8.72578 22.1448C7.73559 20.2917 7.48973 18.1307 8.03836 16.1025C8.58699 14.0744 9.88877 12.3319 11.6781 11.2307C13.4675 10.1295 15.6095 9.75248 17.6673 10.1766C19.7252 10.6007 21.5436 11.7939 22.7518 13.5128C21.5533 13.5459 20.3743 13.8248 19.288 14.3322C18.2017 14.8397 17.2313 15.5649 16.4368 16.4628C16.3677 16.536 16.314 16.6223 16.279 16.7166C16.2439 16.8109 16.2282 16.9114 16.2328 17.0119C16.2374 17.1124 16.2621 17.211 16.3056 17.3017C16.349 17.3925 16.4103 17.4735 16.4858 17.5401C16.5612 17.6067 16.6493 17.6574 16.7447 17.6893C16.8402 17.7211 16.9411 17.7334 17.0414 17.7255C17.1417 17.7175 17.2393 17.6894 17.3286 17.643C17.4178 17.5965 17.4968 17.5325 17.5608 17.4548C18.362 16.5462 19.3782 15.8528 20.5164 15.438C21.6547 15.0232 22.8787 14.9003 24.0767 15.0804C25.2747 15.2606 26.4085 15.7381 27.3744 16.4693C28.3404 17.2004 29.1077 18.162 29.6062 19.2661C30.1048 20.3703 30.3188 21.5817 30.2285 22.7898C30.1383 23.9979 29.7468 25.1642 29.0897 26.182C28.4326 27.1998 27.531 28.0367 26.4672 28.6163C25.4034 29.1959 24.2113 29.4997 22.9998 29.4998Z" fill="black"/>
<path d="M31.8979 10.2547C31.8481 10.1683 31.7819 10.0927 31.7029 10.032C31.6239 9.97125 31.5337 9.92672 31.4375 9.9009C31.3413 9.87508 31.2409 9.86848 31.1421 9.88148C31.0434 9.89448 30.9481 9.92682 30.8619 9.97665L27.8419 11.7207C27.7516 11.7683 27.672 11.8337 27.6076 11.9129C27.5432 11.9921 27.4955 12.0834 27.4672 12.1814C27.4389 12.2795 27.4307 12.3822 27.4431 12.4835C27.4554 12.5848 27.4881 12.6826 27.539 12.771C27.59 12.8594 27.6583 12.9366 27.7398 12.998C27.8213 13.0593 27.9144 13.1037 28.0134 13.1283C28.1124 13.1529 28.2154 13.1573 28.3162 13.1412C28.4169 13.1251 28.5134 13.0889 28.5999 13.0347L31.6199 11.2907C31.794 11.19 31.9211 11.0244 31.9732 10.8302C32.0253 10.6359 31.9982 10.4289 31.8979 10.2547Z" fill="black"/>
<path d="M22.6759 7.86965C22.7622 7.91964 22.8575 7.95211 22.9564 7.96519C23.0553 7.97827 23.1558 7.97171 23.2521 7.94588C23.3484 7.92006 23.4387 7.87547 23.5178 7.81469C23.5969 7.7539 23.6632 7.67811 23.7129 7.59165L25.4569 4.57165C25.5487 4.39798 25.5696 4.19549 25.5151 4.00675C25.4607 3.81801 25.3353 3.65771 25.1651 3.55956C24.995 3.46141 24.7934 3.43304 24.6028 3.48042C24.4121 3.52781 24.2473 3.64725 24.1429 3.81365L22.3989 6.83365C22.2984 7.00781 22.2712 7.21471 22.3231 7.40894C22.3751 7.60317 22.5019 7.76887 22.6759 7.86965Z" fill="black"/>
<path d="M16.0002 6.08117C16.0999 6.08117 16.1986 6.06154 16.2907 6.0234C16.3828 5.98525 16.4664 5.92935 16.5369 5.85887C16.6074 5.78839 16.6633 5.70472 16.7014 5.61263C16.7396 5.52054 16.7592 5.42185 16.7592 5.32217V1.83517C16.7592 1.63387 16.6792 1.44082 16.5369 1.29848C16.3946 1.15614 16.2015 1.07617 16.0002 1.07617C15.7989 1.07617 15.6059 1.15614 15.4635 1.29848C15.3212 1.44082 15.2412 1.63387 15.2412 1.83517V5.32217C15.2411 5.42193 15.2606 5.52073 15.2987 5.61294C15.3368 5.70514 15.3927 5.78893 15.4632 5.85951C15.5337 5.9301 15.6174 5.98609 15.7095 6.0243C15.8017 6.06251 15.9005 6.08217 16.0002 6.08217V6.08117Z" fill="black"/>
<path d="M8.28682 7.59161C8.39029 7.76017 8.55547 7.88168 8.7472 7.93027C8.93892 7.97887 9.14204 7.9507 9.31331 7.85177C9.48457 7.75284 9.61046 7.59097 9.66416 7.40061C9.71786 7.21026 9.69513 7.00646 9.60082 6.83261L7.85682 3.81261C7.80733 3.72554 7.74109 3.64914 7.66193 3.58779C7.58277 3.52644 7.49225 3.48136 7.39559 3.45516C7.29893 3.42895 7.19804 3.42213 7.09874 3.4351C6.99943 3.44806 6.90367 3.48055 6.81698 3.53069C6.73028 3.58083 6.65437 3.64764 6.59362 3.72725C6.53286 3.80687 6.48846 3.89772 6.46297 3.99457C6.43749 4.09142 6.43142 4.19236 6.44513 4.29157C6.45883 4.39078 6.49203 4.48629 6.54282 4.57261L8.28682 7.59161Z" fill="black"/>
<path d="M4.15901 11.7209L1.13901 9.9769C1.0527 9.92612 0.957183 9.89291 0.857976 9.87921C0.758768 9.86551 0.65783 9.87157 0.560977 9.89706C0.464125 9.92254 0.373273 9.96694 0.293659 10.0277C0.214044 10.0885 0.147241 10.1644 0.097099 10.2511C0.0469569 10.3378 0.0144676 10.4335 0.00150339 10.5328C-0.0114608 10.6321 -0.00464363 10.733 0.0215621 10.8297C0.0477679 10.9263 0.0928441 11.0169 0.154193 11.096C0.215542 11.1752 0.29195 11.2414 0.379014 11.2909L3.40001 13.0349C3.48642 13.0879 3.58257 13.1231 3.68279 13.1384C3.78302 13.1537 3.88528 13.1487 3.98356 13.1238C4.08183 13.0989 4.17412 13.0545 4.25497 12.9934C4.33583 12.9322 4.40361 12.8555 4.45432 12.7677C4.50503 12.6799 4.53764 12.5828 4.55022 12.4822C4.5628 12.3816 4.5551 12.2795 4.52757 12.182C4.50005 12.0844 4.45325 11.9933 4.38995 11.9141C4.32665 11.835 4.24813 11.7692 4.15901 11.7209Z" fill="black"/>
</g>
<defs>
<clipPath id="clip0">
<rect width="32" height="32" fill="white"/>
</clipPath>
</defs>
</svg>
