<svg width="17" height="18" viewBox="0 0 17 18" fill="none" xmlns="http://www.w3.org/2000/svg">
<g clip-path="url(#clip0)">
<path d="M12.5382 11.7513C14.6938 10.5804 16.3278 9.68825 16.4687 9.61888C16.9193 9.38186 17.3846 8.75449 16.4687 8.26717C16.173 8.11391 14.5809 7.24952 12.5382 6.13477L9.70654 8.96385L12.5382 11.7512V11.7513Z" fill="white"/>
<path d="M9.70687 8.96387L0.69043 17.9536C0.902066 17.9813 1.141 17.9258 1.42269 17.7726C2.01411 17.4523 8.28365 14.0652 12.5386 11.752L9.70687 8.96387Z" fill="#F43249"/>
<path d="M9.70672 8.96347L12.5384 6.14831C12.5384 6.14831 2.05672 0.489407 1.42254 0.155356C1.18361 0.0153637 0.915863 -0.0262203 0.67627 0.0153637L9.70672 8.96347Z" fill="#00EE76"/>
<path d="M9.70667 8.96568L0.676215 0.0175781C0.309719 0.101403 0 0.421724 0 1.07682V16.8961C0 17.4957 0.23966 17.9276 0.690227 17.9692L9.70667 8.96568Z" fill="#00D3FF"/>
</g>
<defs>
<clipPath id="clip0">
<rect width="17" height="18" fill="white"/>
</clipPath>
</defs>
</svg>
