<svg xmlns="http://www.w3.org/2000/svg" width="45" height="45"><path fill="#0c2f75" d="M22.5 45C34.926 45 45 34.926 45 22.5S34.926 0 22.5 0 0 10.074 0 22.5 10.074 45 22.5 45z"/><path fill="#fff" d="M15.768 16.759c-.99 1.126-1.655 2.243-1.996 3.352a11.855 11.855 0 00-.512 3.506c0 1.194.299 2.158.896 2.892.597.733 1.458 1.1 2.584 1.1 1.058 0 1.868-.341 2.431-1.024.563-.682.845-1.381.845-2.098 0-1.092-.324-1.902-.973-2.43-.648-.53-1.535-.914-2.661-1.152.239-2.048 1.314-3.6 3.224-4.658V14.2c-1.57.58-2.849 1.433-3.838 2.559zm9.212 0c-.99 1.126-1.655 2.243-1.996 3.352a11.855 11.855 0 00-.512 3.506c0 1.194.299 2.158.896 2.892.597.733 1.459 1.1 2.585 1.1 1.057 0 1.868-.341 2.43-1.024.564-.682.845-1.381.845-2.098 0-1.092-.324-1.902-.972-2.43-.649-.53-1.536-.914-2.662-1.152.24-2.048 1.314-3.6 3.225-4.658V14.2c-1.57.58-2.85 1.433-3.839 2.559z"/></svg>