<svg width="36" height="36" viewBox="0 0 36 36" fill="none" xmlns="http://www.w3.org/2000/svg">
<path d="M17.9985 11.0654C16.159 11.0654 14.3948 11.7962 13.094 13.0969C11.7933 14.3977 11.0625 16.1619 11.0625 18.0014C11.0625 19.841 11.7933 21.6052 13.094 22.9059C14.3948 24.2067 16.159 24.9374 17.9985 24.9374C19.838 24.9374 21.6022 24.2067 22.903 22.9059C24.2037 21.6052 24.9345 19.841 24.9345 18.0014C24.9345 16.1619 24.2037 14.3977 22.903 13.0969C21.6022 11.7962 19.838 11.0654 17.9985 11.0654ZM17.9985 22.5059C16.8034 22.5059 15.6573 22.0312 14.8123 21.1861C13.9672 20.3411 13.4925 19.195 13.4925 17.9999C13.4925 16.8049 13.9672 15.6587 14.8123 14.8137C15.6573 13.9687 16.8034 13.4939 17.9985 13.4939C19.1936 13.4939 20.3397 13.9687 21.1847 14.8137C22.0298 15.6587 22.5045 16.8049 22.5045 17.9999C22.5045 19.195 22.0298 20.3411 21.1847 21.1861C20.3397 22.0312 19.1936 22.5059 17.9985 22.5059Z" fill="#313131"/>
<path d="M25.2088 12.4274C26.1018 12.4274 26.8258 11.7034 26.8258 10.8104C26.8258 9.91731 26.1018 9.19336 25.2088 9.19336C24.3158 9.19336 23.5918 9.91731 23.5918 10.8104C23.5918 11.7034 24.3158 12.4274 25.2088 12.4274Z" fill="#313131"/>
<path d="M30.7994 9.16681C30.4522 8.27008 29.9215 7.45574 29.2414 6.7759C28.5613 6.09607 27.7468 5.56572 26.8499 5.21881C25.8004 4.82485 24.6917 4.61182 23.5709 4.58881C22.1264 4.52581 21.6689 4.50781 18.0059 4.50781C14.3429 4.50781 13.8734 4.50781 12.4409 4.58881C11.321 4.61065 10.2131 4.82371 9.16493 5.21881C8.26783 5.56531 7.45308 6.09552 6.77293 6.77541C6.09279 7.45529 5.56227 8.26985 5.21543 9.16681C4.82139 10.2162 4.60885 11.3251 4.58693 12.4458C4.52243 13.8888 4.50293 14.3463 4.50293 18.0108C4.50293 21.6738 4.50293 22.1403 4.58693 23.5758C4.60943 24.6978 4.82093 25.8048 5.21543 26.8563C5.56325 27.753 6.09427 28.5672 6.77458 29.247C7.45489 29.9268 8.26953 30.4572 9.16643 30.8043C10.2126 31.2141 11.321 31.4424 12.4439 31.4793C13.8884 31.5423 14.3459 31.5618 18.0089 31.5618C21.6719 31.5618 22.1414 31.5618 23.5739 31.4793C24.6946 31.4565 25.8033 31.244 26.8529 30.8508C27.7496 30.5031 28.5639 29.9723 29.2439 29.2923C29.9239 28.6123 30.4547 27.7979 30.8024 26.9013C31.1969 25.8513 31.4084 24.7443 31.4309 23.6223C31.4954 22.1793 31.5149 21.7218 31.5149 18.0573C31.5149 14.3928 31.5149 13.9278 31.4309 12.4923C31.4135 11.3557 31.1998 10.2307 30.7994 9.16681ZM28.9724 23.4648C28.9628 24.3293 28.805 25.1857 28.5059 25.9968C28.2807 26.5801 27.9358 27.1098 27.4935 27.5518C27.0513 27.9938 26.5214 28.3384 25.9379 28.5633C25.1358 28.861 24.2885 29.0188 23.4329 29.0298C22.0079 29.0958 21.6059 29.1123 17.9519 29.1123C14.2949 29.1123 13.9214 29.1123 12.4694 29.0298C11.6143 29.0193 10.7674 28.8615 9.96593 28.5633C9.38046 28.3398 8.84843 27.9959 8.40427 27.5538C7.9601 27.1117 7.61368 26.5812 7.38743 25.9968C7.0926 25.1944 6.9349 24.3481 6.92093 23.4933C6.85643 22.0683 6.84143 21.6663 6.84143 18.0123C6.84143 14.3568 6.84143 13.9833 6.92093 12.5298C6.93063 11.6658 7.08841 10.8099 7.38743 9.99931C7.84493 8.81581 8.78243 7.88431 9.96593 7.43131C10.7678 7.13452 11.6145 6.97676 12.4694 6.96481C13.8959 6.90031 14.2964 6.88231 17.9519 6.88231C21.6074 6.88231 21.9824 6.88231 23.4329 6.96481C24.2885 6.97511 25.136 7.13292 25.9379 7.43131C26.5213 7.65672 27.0511 8.00162 27.4934 8.44386C27.9356 8.8861 28.2805 9.41592 28.5059 9.99931C28.8008 10.8017 28.9585 11.6481 28.9724 12.5028C29.0369 13.9293 29.0534 14.3298 29.0534 17.9853C29.0534 21.6393 29.0534 22.0323 28.9889 23.4663H28.9724V23.4648Z" fill="#313131"/>
</svg>
