<svg width="30" height="27" viewBox="0 0 30 27" fill="none" xmlns="http://www.w3.org/2000/svg">
<path d="M27.3283 0.495854C26.9672 0.522129 26.6127 0.606855 26.2787 0.746728H26.2742C25.9536 0.873853 24.4292 1.5151 22.1117 2.4871L13.807 5.98473C7.84783 8.49348 1.98996 10.964 1.98996 10.964L2.05971 10.937C2.05971 10.937 1.65583 11.0697 1.23396 11.3589C0.973328 11.5247 0.749055 11.7417 0.574709 11.9967C0.367709 12.3005 0.201209 12.7651 0.263084 13.2455C0.364334 14.0577 0.890834 14.5449 1.26883 14.8137C1.65133 15.086 2.01583 15.2131 2.01583 15.2131H2.02483L7.51821 17.0637C7.76458 17.8546 9.19221 22.5481 9.53533 23.6292C9.73783 24.275 9.93471 24.6789 10.1811 24.9871C10.3003 25.1446 10.4398 25.2762 10.6075 25.382C10.6946 25.4327 10.7875 25.4727 10.8842 25.5012L10.828 25.4877C10.8448 25.4922 10.8583 25.5057 10.8707 25.5102C10.9157 25.5226 10.9461 25.5271 11.0035 25.5361C11.8731 25.7994 12.5717 25.2594 12.5717 25.2594L12.6111 25.2279L15.8545 22.2747L21.2905 26.4451L21.4142 26.498C22.5471 26.9952 23.6946 26.7185 24.301 26.2302C24.9118 25.7386 25.1492 25.1097 25.1492 25.1097L25.1886 25.0085L29.3893 3.48835C29.5086 2.95735 29.539 2.4601 29.4073 1.97748C29.2716 1.48903 28.9582 1.06894 28.5287 0.799603C28.1681 0.580358 27.7499 0.474533 27.3283 0.495854ZM27.2147 2.8021C27.2102 2.87298 27.2237 2.8651 27.1922 3.00123V3.0136L23.0308 24.3099C23.0128 24.3402 22.9825 24.4066 22.8992 24.473C22.8115 24.5427 22.7417 24.5866 22.3761 24.4415L15.7273 19.3441L11.7111 23.0049L12.5548 17.6161L23.4178 7.4911C23.8656 7.07485 23.716 6.9871 23.716 6.9871C23.7475 6.47635 23.0398 6.83748 23.0398 6.83748L9.34183 15.3234L9.33733 15.3009L2.77183 13.0902V13.0857L2.75496 13.0824C2.76647 13.0785 2.77774 13.074 2.78871 13.0689L2.82471 13.0509L2.85958 13.0385C2.85958 13.0385 8.72196 10.568 14.6811 8.05923C17.6646 6.8026 20.6706 5.53698 22.9825 4.56048C25.2943 3.5896 27.0032 2.87748 27.1 2.83923C27.1922 2.80323 27.1483 2.80323 27.2147 2.80323V2.8021Z" fill="#313131"/>
</svg>
