<svg width="26" height="26" viewBox="0 0 26 26" fill="none" xmlns="http://www.w3.org/2000/svg">
<circle cx="13" cy="13" r="13" fill="#C50000"/>
<path d="M7.588 18V9.6H4.108V11.196H5.692V18H7.588ZM12.6676 9.516C10.8796 9.516 9.72756 10.356 9.72756 11.7C9.72756 12.444 10.1956 13.116 10.9396 13.5C9.93156 13.872 9.29556 14.688 9.29556 15.66C9.29556 17.148 10.6036 18.084 12.6796 18.084C14.7316 18.084 16.0516 17.136 16.0516 15.636C16.0516 14.676 15.4516 13.872 14.5036 13.5C15.1876 13.152 15.6196 12.492 15.6196 11.748C15.6196 10.38 14.4676 9.516 12.6676 9.516ZM12.6796 10.824C13.5316 10.824 14.0116 11.196 14.0116 11.856C14.0116 12.504 13.5316 12.876 12.6796 12.876C11.8156 12.876 11.3236 12.504 11.3236 11.856C11.3236 11.196 11.8156 10.824 12.6796 10.824ZM12.6676 14.304C13.6876 14.304 14.2636 14.724 14.2636 15.468C14.2636 16.224 13.6756 16.644 12.6796 16.644C11.6596 16.644 11.0956 16.224 11.0956 15.456C11.0956 14.724 11.6596 14.304 12.6676 14.304ZM22.1682 14.7V13.476H20.1162V11.436H18.9402V13.476H16.8882V14.7H18.9402V16.728H20.1162V14.7H22.1682Z" fill="white"/>
</svg>
