<svg width="12" height="14" viewBox="0 0 12 14" fill="none" xmlns="http://www.w3.org/2000/svg">
<path d="M11.1094 10.2077C10.9248 10.638 10.6968 11.0484 10.4288 11.4323C10.0708 11.9437 9.77678 12.297 9.55144 12.4937C9.20144 12.815 8.82544 12.9803 8.42344 12.9897C8.13544 12.9897 7.78744 12.9077 7.38211 12.741C6.97544 12.575 6.60211 12.4937 6.26011 12.4937C5.90211 12.4937 5.51811 12.575 5.10678 12.741C4.69611 12.9077 4.36411 12.995 4.11011 13.003C3.72544 13.0197 3.34078 12.8503 2.95744 12.4937C2.71278 12.2803 2.40678 11.9137 2.03944 11.395C1.64611 10.8423 1.32278 10.199 1.06944 9.46768C0.798109 8.67634 0.662109 7.91101 0.662109 7.16967C0.662109 6.32101 0.845443 5.58834 1.21278 4.97501C1.49061 4.49332 1.88781 4.0913 2.36611 3.80767C2.83775 3.52479 3.37617 3.37247 3.92611 3.36634C4.23278 3.36634 4.63478 3.46101 5.13278 3.64767C5.63078 3.83434 5.95078 3.92901 6.09011 3.92901C6.19544 3.92901 6.54944 3.81767 7.15211 3.59701C7.72078 3.39234 8.20078 3.30767 8.59411 3.34101C9.66078 3.42701 10.4614 3.84701 10.9941 4.60434C10.0408 5.18234 9.56944 5.99101 9.57878 7.02901C9.58678 7.83768 9.88078 8.51034 10.4568 9.04434C10.7114 9.28803 11.0085 9.48303 11.3334 9.61967C11.2628 9.82434 11.1881 10.0197 11.1094 10.2077ZM8.66478 0.587008C8.66478 1.22034 8.43278 1.81234 7.97211 2.35967C7.41478 3.01034 6.74144 3.38701 6.01144 3.32767C6.0019 3.24803 5.99722 3.16789 5.99744 3.08767C5.99744 2.47901 6.26144 1.82834 6.73278 1.29567C6.96744 1.02634 7.26611 0.801675 7.62811 0.623008C7.98944 0.447008 8.33078 0.349674 8.65211 0.333008C8.66078 0.418341 8.66478 0.503008 8.66478 0.587008Z" fill="black"/>
</svg>
