<svg width="26" height="26" viewBox="0 0 26 26" fill="none" xmlns="http://www.w3.org/2000/svg">
<path d="M21.1816 3.24706C20.9207 3.26604 20.6647 3.32723 20.4235 3.42825H20.4203C20.1887 3.52006 19.0878 3.98318 17.414 4.68518L11.4161 7.21125C7.11232 9.02312 2.88164 10.8074 2.88164 10.8074L2.93201 10.7879C2.93201 10.7879 2.64032 10.8837 2.33564 11.0926C2.1474 11.2123 1.98543 11.3691 1.85951 11.5532C1.71001 11.7726 1.58976 12.1082 1.63445 12.4551C1.70757 13.0417 2.08782 13.3936 2.36082 13.5877C2.63707 13.7844 2.90032 13.8762 2.90032 13.8762H2.90682L6.87426 15.2127C7.0522 15.7839 8.08326 19.1737 8.33107 19.9545C8.47732 20.4209 8.61951 20.7126 8.79745 20.9352C8.88357 21.0489 8.98432 21.144 9.10539 21.2204C9.16832 21.257 9.23543 21.2859 9.30526 21.3065L9.26464 21.2968C9.27682 21.3 9.28657 21.3098 9.29551 21.313C9.32801 21.3219 9.34995 21.3252 9.39139 21.3317C10.0194 21.5218 10.524 21.1318 10.524 21.1318L10.5524 21.1091L12.8949 18.9762L16.8209 21.9882L16.9103 22.0264C17.7284 22.3855 18.5572 22.1856 18.9951 21.833C19.4363 21.4779 19.6078 21.0238 19.6078 21.0238L19.6362 20.9506L22.6701 5.40831C22.7562 5.02481 22.7781 4.66568 22.6831 4.31712C22.585 3.96436 22.3587 3.66095 22.0485 3.46643C21.788 3.30809 21.486 3.23166 21.1816 3.24706ZM21.0995 4.91268C21.0963 4.96387 21.106 4.95818 21.0833 5.0565V5.06543L18.0778 20.4461C18.0648 20.468 18.0429 20.5159 17.9828 20.5639C17.9194 20.6143 17.869 20.6459 17.6049 20.5411L12.8031 16.8597L9.90245 19.5036L10.5118 15.6117L18.3573 8.29919C18.6807 7.99856 18.5726 7.93518 18.5726 7.93518C18.5954 7.56631 18.0843 7.82712 18.0843 7.82712L8.19132 13.9558L8.18807 13.9396L3.44632 12.343V12.3397L3.43414 12.3373C3.44245 12.3346 3.45059 12.3313 3.45851 12.3276L3.48451 12.3146L3.5097 12.3056C3.5097 12.3056 7.74364 10.5214 12.0474 8.7095C14.2022 7.80194 16.3732 6.88787 18.0429 6.18262C19.7126 5.48144 20.9468 4.96712 21.0166 4.9395C21.0833 4.9135 21.0516 4.9135 21.0995 4.9135V4.91268Z" fill="url(#paint0_linear)"/>
<defs>
<linearGradient id="paint0_linear" x1="1.625" y1="12.7306" x2="22.7451" y2="12.7306" gradientUnits="userSpaceOnUse">
<stop stop-color="#9B6618"/>
<stop offset="0.104521" stop-color="#F6DE6E"/>
<stop offset="0.276002" stop-color="#BB862E"/>
<stop offset="0.564811" stop-color="#E0B64C"/>
<stop offset="0.808494" stop-color="#FAECBA"/>
<stop offset="1" stop-color="#AF721E"/>
</linearGradient>
</defs>
</svg>
