<svg width="24" height="24" viewBox="0 0 24 24" fill="none" xmlns="http://www.w3.org/2000/svg">
<path d="M17.25 19.4934V3.375C17.2491 3.0769 17.1303 2.79125 16.9195 2.58046C16.7087 2.36967 16.4231 2.25087 16.125 2.25H3.375C3.0769 2.25087 2.79125 2.36967 2.58046 2.58046C2.36967 2.79125 2.25087 3.0769 2.25 3.375V19.875C2.25148 20.3718 2.4495 20.8479 2.80081 21.1992C3.15212 21.5505 3.62818 21.7485 4.125 21.75H19.5" stroke="url(#paint0_linear)"/>
<path d="M19.5 21.75C18.9033 21.75 18.331 21.5129 17.909 21.091C17.4871 20.669 17.25 20.0967 17.25 19.5V6H20.625C20.9234 6 21.2095 6.11853 21.4205 6.3295C21.6315 6.54048 21.75 6.82663 21.75 7.125V19.5C21.75 20.0967 21.5129 20.669 21.091 21.091C20.669 21.5129 20.0967 21.75 19.5 21.75Z" stroke="url(#paint1_linear)"/>
<path d="M11.25 6H14.25" stroke="url(#paint2_linear)"/>
<path d="M11.25 9H14.25" stroke="url(#paint3_linear)"/>
<path d="M5.25 12H14.25" stroke="url(#paint4_linear)"/>
<path d="M5.25 15H14.25" stroke="url(#paint5_linear)"/>
<path d="M5.25 18H14.25" stroke="url(#paint6_linear)"/>
<path d="M8.25 9.75H5.25C5.05109 9.75 4.86032 9.67098 4.71967 9.53033C4.57902 9.38968 4.5 9.19891 4.5 9V6C4.5 5.80109 4.57902 5.61032 4.71967 5.46967C4.86032 5.32902 5.05109 5.25 5.25 5.25H8.25C8.44891 5.25 8.63968 5.32902 8.78033 5.46967C8.92098 5.61032 9 5.80109 9 6V9C9 9.19891 8.92098 9.38968 8.78033 9.53033C8.63968 9.67098 8.44891 9.75 8.25 9.75Z" stroke="url(#paint7_linear)"/>
<defs>
<linearGradient id="paint0_linear" x1="10.875" y1="2.25" x2="10.875" y2="21.75" gradientUnits="userSpaceOnUse">
<stop stop-color="#A16D1D"/>
<stop offset="0.1875" stop-color="#F5DD6D"/>
<stop offset="0.390625" stop-color="#BD8930"/>
<stop offset="0.583333" stop-color="#D7AA45"/>
<stop offset="0.760417" stop-color="#FAEBB8"/>
<stop offset="1" stop-color="#B47A28"/>
</linearGradient>
<linearGradient id="paint1_linear" x1="19.5" y1="6" x2="19.5" y2="21.75" gradientUnits="userSpaceOnUse">
<stop stop-color="#A16D1D"/>
<stop offset="0.1875" stop-color="#F5DD6D"/>
<stop offset="0.390625" stop-color="#BD8930"/>
<stop offset="0.583333" stop-color="#D7AA45"/>
<stop offset="0.760417" stop-color="#FAEBB8"/>
<stop offset="1" stop-color="#B47A28"/>
</linearGradient>
<linearGradient id="paint2_linear" x1="12.75" y1="6" x2="12.75" y2="7" gradientUnits="userSpaceOnUse">
<stop stop-color="#A16D1D"/>
<stop offset="0.1875" stop-color="#F5DD6D"/>
<stop offset="0.390625" stop-color="#BD8930"/>
<stop offset="0.583333" stop-color="#D7AA45"/>
<stop offset="0.760417" stop-color="#FAEBB8"/>
<stop offset="1" stop-color="#B47A28"/>
</linearGradient>
<linearGradient id="paint3_linear" x1="12.75" y1="9" x2="12.75" y2="10" gradientUnits="userSpaceOnUse">
<stop stop-color="#A16D1D"/>
<stop offset="0.1875" stop-color="#F5DD6D"/>
<stop offset="0.390625" stop-color="#BD8930"/>
<stop offset="0.583333" stop-color="#D7AA45"/>
<stop offset="0.760417" stop-color="#FAEBB8"/>
<stop offset="1" stop-color="#B47A28"/>
</linearGradient>
<linearGradient id="paint4_linear" x1="9.75" y1="12" x2="9.75" y2="13" gradientUnits="userSpaceOnUse">
<stop stop-color="#A16D1D"/>
<stop offset="0.1875" stop-color="#F5DD6D"/>
<stop offset="0.390625" stop-color="#BD8930"/>
<stop offset="0.583333" stop-color="#D7AA45"/>
<stop offset="0.760417" stop-color="#FAEBB8"/>
<stop offset="1" stop-color="#B47A28"/>
</linearGradient>
<linearGradient id="paint5_linear" x1="9.75" y1="15" x2="9.75" y2="16" gradientUnits="userSpaceOnUse">
<stop stop-color="#A16D1D"/>
<stop offset="0.1875" stop-color="#F5DD6D"/>
<stop offset="0.390625" stop-color="#BD8930"/>
<stop offset="0.583333" stop-color="#D7AA45"/>
<stop offset="0.760417" stop-color="#FAEBB8"/>
<stop offset="1" stop-color="#B47A28"/>
</linearGradient>
<linearGradient id="paint6_linear" x1="9.75" y1="18" x2="9.75" y2="19" gradientUnits="userSpaceOnUse">
<stop stop-color="#A16D1D"/>
<stop offset="0.1875" stop-color="#F5DD6D"/>
<stop offset="0.390625" stop-color="#BD8930"/>
<stop offset="0.583333" stop-color="#D7AA45"/>
<stop offset="0.760417" stop-color="#FAEBB8"/>
<stop offset="1" stop-color="#B47A28"/>
</linearGradient>
<linearGradient id="paint7_linear" x1="6.75" y1="5.25" x2="6.75" y2="9.75" gradientUnits="userSpaceOnUse">
<stop stop-color="#A16D1D"/>
<stop offset="0.1875" stop-color="#F5DD6D"/>
<stop offset="0.390625" stop-color="#BD8930"/>
<stop offset="0.583333" stop-color="#D7AA45"/>
<stop offset="0.760417" stop-color="#FAEBB8"/>
<stop offset="1" stop-color="#B47A28"/>
</linearGradient>
</defs>
</svg>
