<svg width="12" height="12" viewBox="0 0 12 12" fill="none" xmlns="http://www.w3.org/2000/svg">
<g clip-path="url(#clip0)">
<path d="M8.69248 7.83419C10.1295 7.05362 11.2189 6.45884 11.3128 6.41259C11.6132 6.25457 11.9234 5.83633 11.3128 5.51145C11.1156 5.40927 10.0543 4.83301 8.69248 4.08984L6.80469 5.9759L8.69248 7.83415V7.83419Z" fill="#FFDF00"/>
<path d="M6.80588 5.97559L0.794922 11.9687C0.936013 11.9872 1.0953 11.9502 1.2831 11.8481C1.67737 11.6346 5.85707 9.37649 8.69368 7.83432L6.80588 5.97559Z" fill="#F43249"/>
<path d="M6.80546 5.97564L8.69326 4.09887C8.69326 4.09887 1.70546 0.326272 1.28267 0.103571C1.12339 0.0102424 0.944885 -0.0174802 0.785156 0.0102424L6.80546 5.97564Z" fill="#00EE76"/>
<path d="M6.8051 5.97712L0.784794 0.0117188C0.540464 0.067602 0.333984 0.281149 0.333984 0.717879V11.2641C0.333984 11.6638 0.493758 11.9517 0.794135 11.9795L6.8051 5.97712Z" fill="#00D3FF"/>
</g>
<defs>
<clipPath id="clip0">
<rect width="11.3333" height="12" fill="white" transform="translate(0.333984)"/>
</clipPath>
</defs>
</svg>
