<svg width="24" height="21" viewBox="0 0 24 21" fill="none" xmlns="http://www.w3.org/2000/svg">
<g clip-path="url(#clip0)">
<path d="M4.86486 0H0.972973C0.409297 0 0 0.414094 0 0.984375V20.0156C0 20.5859 0.409297 21 0.972973 21H23.027C23.5907 21 24 20.5859 24 20.0156V0.984375C24 0.414094 23.5907 0 23.027 0H4.86486ZM0.648649 20.0156V0.984375C0.648649 0.778969 0.769946 0.65625 0.972973 0.65625H4.54054V20.3438H0.972973C0.769946 20.3438 0.648649 20.221 0.648649 20.0156ZM5.18919 20.3438V0.65625H18.8108V20.3438H5.18919ZM23.3514 0.984375V20.0156C23.3514 20.221 23.2301 20.3438 23.027 20.3438H19.4595V0.65625H23.027C23.2301 0.65625 23.3514 0.778969 23.3514 0.984375Z" stroke="url(#paint0_linear)" stroke-width="0.4"/>
<path d="M9.58603 6.6176C9.53709 6.58468 9.48026 6.56578 9.42156 6.56289C9.36287 6.56 9.30449 6.57324 9.25263 6.6012C9.20107 6.62943 9.15801 6.67122 9.12799 6.72216C9.09796 6.7731 9.08208 6.83129 9.08203 6.8906V14.7656C9.08206 14.825 9.098 14.8832 9.12816 14.9341C9.15831 14.985 9.20155 15.0267 9.25327 15.0547C9.30499 15.0827 9.36325 15.096 9.42185 15.0932C9.48045 15.0903 9.53719 15.0715 9.58603 15.0386L15.4239 11.1011C15.4682 11.071 15.5044 11.0304 15.5295 10.9828C15.5546 10.9352 15.5677 10.8821 15.5677 10.8281C15.5677 10.7741 15.5546 10.721 15.5295 10.6734C15.5044 10.6258 15.4682 10.5852 15.4239 10.5551L9.58603 6.6176V6.6176ZM9.73068 14.1527V7.50354L14.6598 10.8281L9.73068 14.1527Z" stroke="url(#paint1_linear)" stroke-width="0.4"/>
<path d="M3.24272 5.25H1.94542C1.8594 5.25 1.77691 5.28457 1.71609 5.34611C1.65526 5.40764 1.62109 5.4911 1.62109 5.57812C1.62109 5.66515 1.65526 5.74861 1.71609 5.81014C1.77691 5.87168 1.8594 5.90625 1.94542 5.90625H3.24272C3.32873 5.90625 3.41122 5.87168 3.47205 5.81014C3.53287 5.74861 3.56704 5.66515 3.56704 5.57812C3.56704 5.4911 3.53287 5.40764 3.47205 5.34611C3.41122 5.28457 3.32873 5.25 3.24272 5.25Z" stroke="url(#paint2_linear)" stroke-width="0.4"/>
<path d="M1.94542 3.28125H3.24272C3.32873 3.28125 3.41122 3.24668 3.47205 3.18514C3.53287 3.12361 3.56704 3.04015 3.56704 2.95312C3.56704 2.8661 3.53287 2.78264 3.47205 2.72111C3.41122 2.65957 3.32873 2.625 3.24272 2.625H1.94542C1.8594 2.625 1.77691 2.65957 1.71609 2.72111C1.65526 2.78264 1.62109 2.8661 1.62109 2.95312C1.62109 3.04015 1.65526 3.12361 1.71609 3.18514C1.77691 3.24668 1.8594 3.28125 1.94542 3.28125Z" stroke="url(#paint3_linear)" stroke-width="0.4"/>
<path d="M3.24272 7.875H1.94542C1.8594 7.875 1.77691 7.90957 1.71609 7.97111C1.65526 8.03264 1.62109 8.1161 1.62109 8.20312C1.62109 8.29015 1.65526 8.37361 1.71609 8.43514C1.77691 8.49668 1.8594 8.53125 1.94542 8.53125H3.24272C3.32873 8.53125 3.41122 8.49668 3.47205 8.43514C3.53287 8.37361 3.56704 8.29015 3.56704 8.20312C3.56704 8.1161 3.53287 8.03264 3.47205 7.97111C3.41122 7.90957 3.32873 7.875 3.24272 7.875Z" stroke="url(#paint4_linear)" stroke-width="0.4"/>
<path d="M3.24272 10.5H1.94542C1.8594 10.5 1.77691 10.5346 1.71609 10.5961C1.65526 10.6576 1.62109 10.7411 1.62109 10.8281C1.62109 10.9151 1.65526 10.9986 1.71609 11.0601C1.77691 11.1217 1.8594 11.1562 1.94542 11.1562H3.24272C3.32873 11.1562 3.41122 11.1217 3.47205 11.0601C3.53287 10.9986 3.56704 10.9151 3.56704 10.8281C3.56704 10.7411 3.53287 10.6576 3.47205 10.5961C3.41122 10.5346 3.32873 10.5 3.24272 10.5V10.5Z" stroke="url(#paint5_linear)" stroke-width="0.4"/>
<path d="M3.24272 13.125H1.94542C1.8594 13.125 1.77691 13.1596 1.71609 13.2211C1.65526 13.2826 1.62109 13.3661 1.62109 13.4531C1.62109 13.5401 1.65526 13.6236 1.71609 13.6851C1.77691 13.7467 1.8594 13.7812 1.94542 13.7812H3.24272C3.32873 13.7812 3.41122 13.7467 3.47205 13.6851C3.53287 13.6236 3.56704 13.5401 3.56704 13.4531C3.56704 13.3661 3.53287 13.2826 3.47205 13.2211C3.41122 13.1596 3.32873 13.125 3.24272 13.125Z" stroke="url(#paint6_linear)" stroke-width="0.4"/>
<path d="M3.24272 15.75H1.94542C1.8594 15.75 1.77691 15.7846 1.71609 15.8461C1.65526 15.9076 1.62109 15.9911 1.62109 16.0781C1.62109 16.1651 1.65526 16.2486 1.71609 16.3101C1.77691 16.3717 1.8594 16.4062 1.94542 16.4062H3.24272C3.32873 16.4062 3.41122 16.3717 3.47205 16.3101C3.53287 16.2486 3.56704 16.1651 3.56704 16.0781C3.56704 15.9911 3.53287 15.9076 3.47205 15.8461C3.41122 15.7846 3.32873 15.75 3.24272 15.75Z" stroke="url(#paint7_linear)" stroke-width="0.4"/>
<path d="M3.24272 18.375H1.94542C1.8594 18.375 1.77691 18.4096 1.71609 18.4711C1.65526 18.5326 1.62109 18.6161 1.62109 18.7031C1.62109 18.7901 1.65526 18.8736 1.71609 18.9351C1.77691 18.9967 1.8594 19.0312 1.94542 19.0312H3.24272C3.32873 19.0312 3.41122 18.9967 3.47205 18.9351C3.53287 18.8736 3.56704 18.7901 3.56704 18.7031C3.56704 18.6161 3.53287 18.5326 3.47205 18.4711C3.41122 18.4096 3.32873 18.375 3.24272 18.375Z" stroke="url(#paint8_linear)" stroke-width="0.4"/>
<path d="M20.756 5.90625H22.0533C22.1393 5.90625 22.2218 5.87168 22.2826 5.81014C22.3434 5.74861 22.3776 5.66515 22.3776 5.57812C22.3776 5.4911 22.3434 5.40764 22.2826 5.34611C22.2218 5.28457 22.1393 5.25 22.0533 5.25H20.756C20.6699 5.25 20.5875 5.28457 20.5266 5.34611C20.4658 5.40764 20.4316 5.4911 20.4316 5.57812C20.4316 5.66515 20.4658 5.74861 20.5266 5.81014C20.5875 5.87168 20.6699 5.90625 20.756 5.90625Z" stroke="url(#paint9_linear)" stroke-width="0.4"/>
<path d="M20.756 3.28125H22.0533C22.1393 3.28125 22.2218 3.24668 22.2826 3.18514C22.3434 3.12361 22.3776 3.04015 22.3776 2.95312C22.3776 2.8661 22.3434 2.78264 22.2826 2.72111C22.2218 2.65957 22.1393 2.625 22.0533 2.625H20.756C20.6699 2.625 20.5875 2.65957 20.5266 2.72111C20.4658 2.78264 20.4316 2.8661 20.4316 2.95312C20.4316 3.04015 20.4658 3.12361 20.5266 3.18514C20.5875 3.24668 20.6699 3.28125 20.756 3.28125Z" stroke="url(#paint10_linear)" stroke-width="0.4"/>
<path d="M20.756 8.53125H22.0533C22.1393 8.53125 22.2218 8.49668 22.2826 8.43514C22.3434 8.37361 22.3776 8.29015 22.3776 8.20312C22.3776 8.1161 22.3434 8.03264 22.2826 7.97111C22.2218 7.90957 22.1393 7.875 22.0533 7.875H20.756C20.6699 7.875 20.5875 7.90957 20.5266 7.97111C20.4658 8.03264 20.4316 8.1161 20.4316 8.20312C20.4316 8.29015 20.4658 8.37361 20.5266 8.43514C20.5875 8.49668 20.6699 8.53125 20.756 8.53125Z" stroke="url(#paint11_linear)" stroke-width="0.4"/>
<path d="M20.756 11.1562H22.0533C22.1393 11.1562 22.2218 11.1217 22.2826 11.0601C22.3434 10.9986 22.3776 10.9151 22.3776 10.8281C22.3776 10.7411 22.3434 10.6576 22.2826 10.5961C22.2218 10.5346 22.1393 10.5 22.0533 10.5H20.756C20.6699 10.5 20.5875 10.5346 20.5266 10.5961C20.4658 10.6576 20.4316 10.7411 20.4316 10.8281C20.4316 10.9151 20.4658 10.9986 20.5266 11.0601C20.5875 11.1217 20.6699 11.1562 20.756 11.1562Z" stroke="url(#paint12_linear)" stroke-width="0.4"/>
<path d="M20.756 13.7812H22.0533C22.1393 13.7812 22.2218 13.7467 22.2826 13.6851C22.3434 13.6236 22.3776 13.5401 22.3776 13.4531C22.3776 13.3661 22.3434 13.2826 22.2826 13.2211C22.2218 13.1596 22.1393 13.125 22.0533 13.125H20.756C20.6699 13.125 20.5875 13.1596 20.5266 13.2211C20.4658 13.2826 20.4316 13.3661 20.4316 13.4531C20.4316 13.5401 20.4658 13.6236 20.5266 13.6851C20.5875 13.7467 20.6699 13.7812 20.756 13.7812Z" stroke="url(#paint13_linear)" stroke-width="0.4"/>
<path d="M20.756 16.4062H22.0533C22.1393 16.4062 22.2218 16.3717 22.2826 16.3101C22.3434 16.2486 22.3776 16.1651 22.3776 16.0781C22.3776 15.9911 22.3434 15.9076 22.2826 15.8461C22.2218 15.7846 22.1393 15.75 22.0533 15.75H20.756C20.6699 15.75 20.5875 15.7846 20.5266 15.8461C20.4658 15.9076 20.4316 15.9911 20.4316 16.0781C20.4316 16.1651 20.4658 16.2486 20.5266 16.3101C20.5875 16.3717 20.6699 16.4062 20.756 16.4062Z" stroke="url(#paint14_linear)" stroke-width="0.4"/>
<path d="M22.0533 18.375H20.756C20.6699 18.375 20.5875 18.4096 20.5266 18.4711C20.4658 18.5326 20.4316 18.6161 20.4316 18.7031C20.4316 18.7901 20.4658 18.8736 20.5266 18.9351C20.5875 18.9967 20.6699 19.0312 20.756 19.0312H22.0533C22.1393 19.0312 22.2218 18.9967 22.2826 18.9351C22.3434 18.8736 22.3776 18.7901 22.3776 18.7031C22.3776 18.6161 22.3434 18.5326 22.2826 18.4711C22.2218 18.4096 22.1393 18.375 22.0533 18.375Z" stroke="url(#paint15_linear)" stroke-width="0.4"/>
</g>
<defs>
<linearGradient id="paint0_linear" x1="12" y1="0" x2="12" y2="21" gradientUnits="userSpaceOnUse">
<stop stop-color="#A16D1D"/>
<stop offset="0.1875" stop-color="#F5DD6D"/>
<stop offset="0.390625" stop-color="#BD8930"/>
<stop offset="0.583333" stop-color="#D7AA45"/>
<stop offset="0.760417" stop-color="#FAEBB8"/>
<stop offset="1" stop-color="#B47A28"/>
</linearGradient>
<linearGradient id="paint1_linear" x1="12.3249" y1="6.5625" x2="12.3249" y2="15.0936" gradientUnits="userSpaceOnUse">
<stop stop-color="#A16D1D"/>
<stop offset="0.1875" stop-color="#F5DD6D"/>
<stop offset="0.390625" stop-color="#BD8930"/>
<stop offset="0.583333" stop-color="#D7AA45"/>
<stop offset="0.760417" stop-color="#FAEBB8"/>
<stop offset="1" stop-color="#B47A28"/>
</linearGradient>
<linearGradient id="paint2_linear" x1="2.59407" y1="5.25" x2="2.59407" y2="5.90625" gradientUnits="userSpaceOnUse">
<stop stop-color="#A16D1D"/>
<stop offset="0.1875" stop-color="#F5DD6D"/>
<stop offset="0.390625" stop-color="#BD8930"/>
<stop offset="0.583333" stop-color="#D7AA45"/>
<stop offset="0.760417" stop-color="#FAEBB8"/>
<stop offset="1" stop-color="#B47A28"/>
</linearGradient>
<linearGradient id="paint3_linear" x1="2.59407" y1="2.625" x2="2.59407" y2="3.28125" gradientUnits="userSpaceOnUse">
<stop stop-color="#A16D1D"/>
<stop offset="0.1875" stop-color="#F5DD6D"/>
<stop offset="0.390625" stop-color="#BD8930"/>
<stop offset="0.583333" stop-color="#D7AA45"/>
<stop offset="0.760417" stop-color="#FAEBB8"/>
<stop offset="1" stop-color="#B47A28"/>
</linearGradient>
<linearGradient id="paint4_linear" x1="2.59407" y1="7.875" x2="2.59407" y2="8.53125" gradientUnits="userSpaceOnUse">
<stop stop-color="#A16D1D"/>
<stop offset="0.1875" stop-color="#F5DD6D"/>
<stop offset="0.390625" stop-color="#BD8930"/>
<stop offset="0.583333" stop-color="#D7AA45"/>
<stop offset="0.760417" stop-color="#FAEBB8"/>
<stop offset="1" stop-color="#B47A28"/>
</linearGradient>
<linearGradient id="paint5_linear" x1="2.59407" y1="10.5" x2="2.59407" y2="11.1562" gradientUnits="userSpaceOnUse">
<stop stop-color="#A16D1D"/>
<stop offset="0.1875" stop-color="#F5DD6D"/>
<stop offset="0.390625" stop-color="#BD8930"/>
<stop offset="0.583333" stop-color="#D7AA45"/>
<stop offset="0.760417" stop-color="#FAEBB8"/>
<stop offset="1" stop-color="#B47A28"/>
</linearGradient>
<linearGradient id="paint6_linear" x1="2.59407" y1="13.125" x2="2.59407" y2="13.7812" gradientUnits="userSpaceOnUse">
<stop stop-color="#A16D1D"/>
<stop offset="0.1875" stop-color="#F5DD6D"/>
<stop offset="0.390625" stop-color="#BD8930"/>
<stop offset="0.583333" stop-color="#D7AA45"/>
<stop offset="0.760417" stop-color="#FAEBB8"/>
<stop offset="1" stop-color="#B47A28"/>
</linearGradient>
<linearGradient id="paint7_linear" x1="2.59407" y1="15.75" x2="2.59407" y2="16.4062" gradientUnits="userSpaceOnUse">
<stop stop-color="#A16D1D"/>
<stop offset="0.1875" stop-color="#F5DD6D"/>
<stop offset="0.390625" stop-color="#BD8930"/>
<stop offset="0.583333" stop-color="#D7AA45"/>
<stop offset="0.760417" stop-color="#FAEBB8"/>
<stop offset="1" stop-color="#B47A28"/>
</linearGradient>
<linearGradient id="paint8_linear" x1="2.59407" y1="18.375" x2="2.59407" y2="19.0312" gradientUnits="userSpaceOnUse">
<stop stop-color="#A16D1D"/>
<stop offset="0.1875" stop-color="#F5DD6D"/>
<stop offset="0.390625" stop-color="#BD8930"/>
<stop offset="0.583333" stop-color="#D7AA45"/>
<stop offset="0.760417" stop-color="#FAEBB8"/>
<stop offset="1" stop-color="#B47A28"/>
</linearGradient>
<linearGradient id="paint9_linear" x1="21.4046" y1="5.25" x2="21.4046" y2="5.90625" gradientUnits="userSpaceOnUse">
<stop stop-color="#A16D1D"/>
<stop offset="0.1875" stop-color="#F5DD6D"/>
<stop offset="0.390625" stop-color="#BD8930"/>
<stop offset="0.583333" stop-color="#D7AA45"/>
<stop offset="0.760417" stop-color="#FAEBB8"/>
<stop offset="1" stop-color="#B47A28"/>
</linearGradient>
<linearGradient id="paint10_linear" x1="21.4046" y1="2.625" x2="21.4046" y2="3.28125" gradientUnits="userSpaceOnUse">
<stop stop-color="#A16D1D"/>
<stop offset="0.1875" stop-color="#F5DD6D"/>
<stop offset="0.390625" stop-color="#BD8930"/>
<stop offset="0.583333" stop-color="#D7AA45"/>
<stop offset="0.760417" stop-color="#FAEBB8"/>
<stop offset="1" stop-color="#B47A28"/>
</linearGradient>
<linearGradient id="paint11_linear" x1="21.4046" y1="7.875" x2="21.4046" y2="8.53125" gradientUnits="userSpaceOnUse">
<stop stop-color="#A16D1D"/>
<stop offset="0.1875" stop-color="#F5DD6D"/>
<stop offset="0.390625" stop-color="#BD8930"/>
<stop offset="0.583333" stop-color="#D7AA45"/>
<stop offset="0.760417" stop-color="#FAEBB8"/>
<stop offset="1" stop-color="#B47A28"/>
</linearGradient>
<linearGradient id="paint12_linear" x1="21.4046" y1="10.5" x2="21.4046" y2="11.1562" gradientUnits="userSpaceOnUse">
<stop stop-color="#A16D1D"/>
<stop offset="0.1875" stop-color="#F5DD6D"/>
<stop offset="0.390625" stop-color="#BD8930"/>
<stop offset="0.583333" stop-color="#D7AA45"/>
<stop offset="0.760417" stop-color="#FAEBB8"/>
<stop offset="1" stop-color="#B47A28"/>
</linearGradient>
<linearGradient id="paint13_linear" x1="21.4046" y1="13.125" x2="21.4046" y2="13.7812" gradientUnits="userSpaceOnUse">
<stop stop-color="#A16D1D"/>
<stop offset="0.1875" stop-color="#F5DD6D"/>
<stop offset="0.390625" stop-color="#BD8930"/>
<stop offset="0.583333" stop-color="#D7AA45"/>
<stop offset="0.760417" stop-color="#FAEBB8"/>
<stop offset="1" stop-color="#B47A28"/>
</linearGradient>
<linearGradient id="paint14_linear" x1="21.4046" y1="15.75" x2="21.4046" y2="16.4062" gradientUnits="userSpaceOnUse">
<stop stop-color="#A16D1D"/>
<stop offset="0.1875" stop-color="#F5DD6D"/>
<stop offset="0.390625" stop-color="#BD8930"/>
<stop offset="0.583333" stop-color="#D7AA45"/>
<stop offset="0.760417" stop-color="#FAEBB8"/>
<stop offset="1" stop-color="#B47A28"/>
</linearGradient>
<linearGradient id="paint15_linear" x1="21.4046" y1="18.375" x2="21.4046" y2="19.0312" gradientUnits="userSpaceOnUse">
<stop stop-color="#A16D1D"/>
<stop offset="0.1875" stop-color="#F5DD6D"/>
<stop offset="0.390625" stop-color="#BD8930"/>
<stop offset="0.583333" stop-color="#D7AA45"/>
<stop offset="0.760417" stop-color="#FAEBB8"/>
<stop offset="1" stop-color="#B47A28"/>
</linearGradient>
<clipPath id="clip0">
<rect width="24" height="21" fill="white"/>
</clipPath>
</defs>
</svg>
