<svg width="16" height="16" viewBox="0 0 16 16" fill="none" xmlns="http://www.w3.org/2000/svg">
<path d="M7.99868 4.91797C7.18111 4.91797 6.39702 5.24275 5.81891 5.82086C5.2408 6.39897 4.91602 7.18306 4.91602 8.00064C4.91602 8.81821 5.2408 9.6023 5.81891 10.1804C6.39702 10.7585 7.18111 11.0833 7.99868 11.0833C8.81626 11.0833 9.60035 10.7585 10.1785 10.1804C10.7566 9.6023 11.0814 8.81821 11.0814 8.00064C11.0814 7.18306 10.7566 6.39897 10.1785 5.82086C9.60035 5.24275 8.81626 4.91797 7.99868 4.91797ZM7.99868 10.0026C7.46754 10.0026 6.95816 9.79164 6.58258 9.41607C6.20701 9.04049 5.99602 8.53111 5.99602 7.99997C5.99602 7.46883 6.20701 6.95944 6.58258 6.58387C6.95816 6.2083 7.46754 5.9973 7.99868 5.9973C8.52982 5.9973 9.03921 6.2083 9.41478 6.58387C9.79036 6.95944 10.0014 7.46883 10.0014 7.99997C10.0014 8.53111 9.79036 9.04049 9.41478 9.41607C9.03921 9.79164 8.52982 10.0026 7.99868 10.0026Z" fill="url(#paint0_linear)"/>
<path d="M11.203 5.52327C11.5999 5.52327 11.9217 5.20151 11.9217 4.8046C11.9217 4.4077 11.5999 4.08594 11.203 4.08594C10.8061 4.08594 10.4844 4.4077 10.4844 4.8046C10.4844 5.20151 10.8061 5.52327 11.203 5.52327Z" fill="url(#paint1_linear)"/>
<path d="M13.6873 4.0736C13.533 3.67505 13.2972 3.31312 12.9949 3.01097C12.6926 2.70882 12.3306 2.47311 11.932 2.31893C11.4656 2.14383 10.9728 2.04916 10.4747 2.03893C9.83267 2.01093 9.62934 2.00293 8.00134 2.00293C6.37333 2.00293 6.16467 2.00293 5.528 2.03893C5.03026 2.04863 4.53784 2.14333 4.072 2.31893C3.67329 2.47293 3.31118 2.70858 3.00889 3.01075C2.7066 3.31292 2.47082 3.67495 2.31667 4.0736C2.14154 4.54 2.04708 5.03282 2.03733 5.53093C2.00867 6.17226 2 6.3756 2 8.00426C2 9.63226 2 9.8396 2.03733 10.4776C2.04733 10.9763 2.14133 11.4683 2.31667 11.9356C2.47125 12.3341 2.70726 12.696 3.00962 12.9981C3.31198 13.3002 3.67404 13.536 4.07267 13.6903C4.53762 13.8724 5.03025 13.9739 5.52933 13.9903C6.17133 14.0183 6.37467 14.0269 8.00267 14.0269C9.63067 14.0269 9.83934 14.0269 10.476 13.9903C10.9741 13.9801 11.4668 13.8857 11.9333 13.7109C12.3318 13.5564 12.6938 13.3205 12.996 13.0182C13.2982 12.716 13.5341 12.3541 13.6887 11.9556C13.864 11.4889 13.958 10.9969 13.968 10.4983C13.9967 9.85693 14.0053 9.6536 14.0053 8.02493C14.0053 6.39626 14.0053 6.1896 13.968 5.5516C13.9602 5.04644 13.8653 4.54643 13.6873 4.0736ZM12.8753 10.4283C12.871 10.8125 12.8009 11.1931 12.668 11.5536C12.5679 11.8128 12.4146 12.0483 12.2181 12.2447C12.0215 12.4412 11.786 12.5943 11.5267 12.6943C11.1702 12.8266 10.7936 12.8967 10.4133 12.9016C9.78 12.9309 9.60134 12.9383 7.97734 12.9383C6.352 12.9383 6.186 12.9383 5.54067 12.9016C5.16062 12.8969 4.78422 12.8268 4.428 12.6943C4.16779 12.5949 3.93134 12.4421 3.73393 12.2456C3.53652 12.0491 3.38256 11.8133 3.282 11.5536C3.15096 11.197 3.08087 10.8208 3.07467 10.4409C3.046 9.8076 3.03933 9.62893 3.03933 8.00493C3.03933 6.38026 3.03933 6.21426 3.07467 5.56826C3.07898 5.18428 3.1491 4.80388 3.282 4.4436C3.48533 3.9176 3.902 3.5036 4.428 3.30226C4.78439 3.17036 5.16068 3.10024 5.54067 3.09493C6.17467 3.06626 6.35267 3.05826 7.97734 3.05826C9.602 3.05826 9.76867 3.05826 10.4133 3.09493C10.7936 3.0995 11.1702 3.16964 11.5267 3.30226C11.786 3.40244 12.0214 3.55573 12.218 3.75228C12.4145 3.94884 12.5678 4.18431 12.668 4.4436C12.799 4.80023 12.8691 5.17637 12.8753 5.55626C12.904 6.19026 12.9113 6.36826 12.9113 7.99293C12.9113 9.61693 12.9113 9.7916 12.8827 10.4289H12.8753V10.4283Z" fill="url(#paint2_linear)"/>
<defs>
<linearGradient id="paint0_linear" x1="4.91602" y1="8.00063" x2="11.0814" y2="8.00063" gradientUnits="userSpaceOnUse">
<stop stop-color="#9B6618"/>
<stop offset="0.104521" stop-color="#F6DE6E"/>
<stop offset="0.276002" stop-color="#BB862E"/>
<stop offset="0.564811" stop-color="#E0B64C"/>
<stop offset="0.808494" stop-color="#FAECBA"/>
<stop offset="1" stop-color="#AF721E"/>
</linearGradient>
<linearGradient id="paint1_linear" x1="10.4844" y1="4.8046" x2="11.9217" y2="4.8046" gradientUnits="userSpaceOnUse">
<stop stop-color="#9B6618"/>
<stop offset="0.104521" stop-color="#F6DE6E"/>
<stop offset="0.276002" stop-color="#BB862E"/>
<stop offset="0.564811" stop-color="#E0B64C"/>
<stop offset="0.808494" stop-color="#FAECBA"/>
<stop offset="1" stop-color="#AF721E"/>
</linearGradient>
<linearGradient id="paint2_linear" x1="2" y1="8.01493" x2="14.0053" y2="8.01493" gradientUnits="userSpaceOnUse">
<stop stop-color="#9B6618"/>
<stop offset="0.104521" stop-color="#F6DE6E"/>
<stop offset="0.276002" stop-color="#BB862E"/>
<stop offset="0.564811" stop-color="#E0B64C"/>
<stop offset="0.808494" stop-color="#FAECBA"/>
<stop offset="1" stop-color="#AF721E"/>
</linearGradient>
</defs>
</svg>
