<svg width="13" height="13" viewBox="0 0 13 13" fill="none" xmlns="http://www.w3.org/2000/svg">
<path d="M12.0348 0.998266C11.8743 1.00994 11.7168 1.0476 11.5683 1.10977H11.5663C11.4238 1.16627 10.7463 1.45127 9.71631 1.88327L6.02531 3.43777C3.37681 4.55277 0.773315 5.65077 0.773315 5.65077L0.804315 5.63877C0.804315 5.63877 0.624815 5.69777 0.437315 5.82627C0.321479 5.89998 0.221802 5.99642 0.144315 6.10977C0.0523152 6.24477 -0.0216848 6.45127 0.00581522 6.66477C0.0508152 7.02577 0.284815 7.24227 0.452815 7.36177C0.622815 7.48277 0.784815 7.53927 0.784815 7.53927H0.788815L3.23031 8.36177C3.33982 8.71327 3.97431 10.7993 4.12681 11.2798C4.21681 11.5668 4.30431 11.7463 4.41381 11.8833C4.46681 11.9533 4.52881 12.0118 4.60331 12.0588C4.64204 12.0813 4.68334 12.0991 4.72631 12.1118L4.70131 12.1058C4.70881 12.1078 4.71481 12.1138 4.72031 12.1158C4.74031 12.1213 4.75381 12.1233 4.77931 12.1273C5.16581 12.2443 5.47631 12.0043 5.47631 12.0043L5.49381 11.9903L6.93531 10.6778L9.35131 12.5313L9.40631 12.5548C9.90981 12.7758 10.4198 12.6528 10.6893 12.4358C10.9608 12.2173 11.0663 11.9378 11.0663 11.9378L11.0838 11.8928L12.9508 2.32827C13.0038 2.09227 13.0173 1.87127 12.9588 1.65677C12.8985 1.43968 12.7592 1.25297 12.5683 1.13327C12.408 1.03582 12.2222 0.98879 12.0348 0.998266ZM11.9843 2.02327C11.9823 2.05477 11.9883 2.05127 11.9743 2.11177V2.11727L10.1248 11.5823C10.1168 11.5958 10.1033 11.6253 10.0663 11.6548C10.0273 11.6858 9.99631 11.7053 9.83381 11.6408L6.87881 9.37527L5.09381 11.0023L5.46881 8.60727L10.2968 4.10727C10.4958 3.92227 10.4293 3.88327 10.4293 3.88327C10.4433 3.65627 10.1288 3.81677 10.1288 3.81677L4.04081 7.58827L4.03881 7.57827L1.12082 6.59577V6.59377L1.11332 6.59227C1.11843 6.59057 1.12344 6.58856 1.12832 6.58627L1.14432 6.57827L1.15982 6.57277C1.15982 6.57277 3.76531 5.47477 6.41381 4.35977C7.73981 3.80127 9.07581 3.23877 10.1033 2.80477C11.1308 2.37327 11.8903 2.05677 11.9333 2.03977C11.9743 2.02377 11.9548 2.02377 11.9843 2.02377V2.02327Z" fill="url(#paint0_linear)"/>
<defs>
<linearGradient id="paint0_linear" x1="2.42088e-08" y1="6.83426" x2="12.997" y2="6.83426" gradientUnits="userSpaceOnUse">
<stop stop-color="#9B6618"/>
<stop offset="0.104521" stop-color="#F6DE6E"/>
<stop offset="0.276002" stop-color="#BB862E"/>
<stop offset="0.564811" stop-color="#E0B64C"/>
<stop offset="0.808494" stop-color="#FAECBA"/>
<stop offset="1" stop-color="#AF721E"/>
</linearGradient>
</defs>
</svg>
